<svg id="visual" viewBox="0 0 900 600" width="600" height="600" xmlns="http://www.w3.org/2000/svg" xmlns:xlink="http://www.w3.org/1999/xlink" version="1.1"><g transform="translate(422.60726446978026 300.06808851953366)"><path d="M127 -136.8C172.1 -113.5 221.5 -80.6 236.4 -35.8C251.3 9 231.7 65.7 200 110.7C168.4 155.6 124.5 188.7 77.7 199.7C30.9 210.8 -18.9 199.8 -63.7 181C-108.5 162.1 -148.2 135.3 -167.4 98.4C-186.7 61.5 -185.4 14.5 -186.2 -41.9C-187.1 -98.3 -189.9 -164 -159.3 -189.9C-128.6 -215.7 -64.3 -201.6 -11.7 -187.7C40.9 -173.8 81.8 -160 127 -136.8" fill="#65f6ff"></path></g></svg>