<svg xmlns="http://www.w3.org/2000/svg" version="1.1" xmlns:xlink="http://www.w3.org/1999/xlink" xmlns:svgjs="http://svgjs.dev/svgjs" width="1440" height="560" preserveAspectRatio="none" viewBox="0 0 1440 560">
    <g mask="url(&quot;#SvgjsMask1042&quot;)" fill="none">
        <path d="M901.595245627658 158.24287980006937L964.1666429018132 218.667375771715 1023.517688222204 94.59803187465926z" fill="rgba(57, 62, 70, 1)" class="triangle-float2"></path>
        <path d="M64.64297061767269 299.94531334182983L173.6889884636671 183.0077758509923-52.29456687316487 190.89929549583542z" fill="rgba(57, 62, 70, 1)" class="triangle-float3"></path>
        <path d="M956.7828873013386 269.7802334782982L1053.6790719267874 222.52080652877248 934.3418391897744 100.80624306536242z" fill="rgba(57, 62, 70, 1)" class="triangle-float2"></path>
        <path d="M896.9219163160229 342.7621509289361L988.9416201365696 265.5484513920728 911.7279205997063 173.52874757152625 819.7082167791597 250.74244710838948z" fill="rgba(57, 62, 70, 1)" class="triangle-float2"></path>
        <path d="M572.8397471899609 49.73558023831585L609.2550824839525 101.74206875327565 669.0571476093965 21.115821554808377z" fill="rgba(57, 62, 70, 1)" class="triangle-float3"></path>
        <path d="M234.2537886875474 427.8779269840951L367.91172765033025 384.4498300571913 324.4836307234265 250.7918910944085 190.82569176064365 294.21998802131225z" fill="rgba(57, 62, 70, 1)" class="triangle-float3"></path>
        <path d="M863.8080240626558 430.43983399359206L800.530133883414 386.13217828808075 765.707595414768 503.2028414096992z" fill="rgba(57, 62, 70, 1)" class="triangle-float1"></path>
        <path d="M1131.7089982605323 360.31832833708563L1084.6160775539702 237.28674373680929 1010.5936537725825 325.503233210809z" fill="rgba(57, 62, 70, 1)" class="triangle-float2"></path>
        <path d="M1186.2175994890988 364.7091795202498L1070.3866846579801 448.86526520282433 1154.5427703405549 564.6961800339429 1270.3736851716733 480.54009435136834z" fill="rgba(57, 62, 70, 1)" class="triangle-float2"></path>
        <path d="M268.2474304463956 556.7237667210424L321.4474746477207 588.6895782121442 342.79616978371087 492.9066061646056z" fill="rgba(57, 62, 70, 1)" class="triangle-float3"></path>
        <path d="M54.9372699129766 183.18839560506456L104.07917208915916 264.9742551205614 136.72312942847344 134.046493428882z" fill="rgba(57, 62, 70, 1)" class="triangle-float1"></path>
        <path d="M881.5749865155145 254.74279131720203L969.2748066553238 129.49446799289137 844.0264833310132 41.794647853082125 756.3266631912039 167.04297117739276z" fill="rgba(57, 62, 70, 1)" class="triangle-float3"></path>
        <path d="M376.2455849405104 553.2502784602831L497.81640670260026 588.1101506434688 532.6762788857861 466.539328881379 411.10545712369617 431.67945669819323z" fill="rgba(57, 62, 70, 1)" class="triangle-float2"></path>
        <path d="M633.6434276468655 247.64144802629198L520.6646142982111 315.52596775196366 701.5279473725371 360.6202613749464z" fill="rgba(57, 62, 70, 1)" class="triangle-float1"></path>
        <path d="M545.9880745936438 95.227513794598L565.8679960765278 220.74439816877793 691.3848804507078 200.8644766858939 671.5049589678238 75.34759231171394z" fill="rgba(57, 62, 70, 1)" class="triangle-float3"></path>
        <path d="M1171.664294633528 249.44294313119937L1199.2107352932949 368.7596862713791 1318.5274784334745 341.2132456116123 1290.9810377737076 221.8965024714326z" fill="rgba(57, 62, 70, 1)" class="triangle-float2"></path>
        <path d="M573.6551726029128 141.43513918337655L651.2567379061531 85.05430175078715 594.8759004735638 7.452736447546755 517.2743351703234 63.83357388013616z" fill="rgba(57, 62, 70, 1)" class="triangle-float2"></path>
        <path d="M765.3178386075316 409.5816181238622L783.2607243670132 501.8897631158993 857.6259835995687 391.6387323643807z" fill="rgba(57, 62, 70, 1)" class="triangle-float2"></path>
    </g>
    <defs>
        <mask id="SvgjsMask1042">
            <rect width="1440" height="560" fill="#ffffff"></rect>
        </mask>
        <style>
            @keyframes float1 {
                    0%{transform: translate(0, 0)}
                    50%{transform: translate(-10px, 0)}
                    100%{transform: translate(0, 0)}
                }

                .triangle-float1 {
                    animation: float1 5s infinite;
                }

                @keyframes float2 {
                    0%{transform: translate(0, 0)}
                    50%{transform: translate(-5px, -5px)}
                    100%{transform: translate(0, 0)}
                }

                .triangle-float2 {
                    animation: float2 4s infinite;
                }

                @keyframes float3 {
                    0%{transform: translate(0, 0)}
                    50%{transform: translate(0, -10px)}
                    100%{transform: translate(0, 0)}
                }

                .triangle-float3 {
                    animation: float3 6s infinite;
                }
        </style>
    </defs>
</svg>