<svg xmlns="http://www.w3.org/2000/svg" version="1.1" xmlns:xlink="http://www.w3.org/1999/xlink" xmlns:svgjs="http://svgjs.dev/svgjs" width="1440" height="560" preserveAspectRatio="none" viewBox="0 0 1440 560">
    <g mask="url(&quot;#SvgjsMask1004&quot;)" fill="none">
        <path d="M1086.49 338.08L1087.41 338.08L1087.41 339.81L1086.49 339.81z" fill="rgba(57, 62, 70, 1)"></path>
        <path d="M161.52 75.7L200.82 75.7L200.82 115L161.52 115z" stroke="rgba(57, 62, 70, 1)"></path>
        <path d="M97.27 466.88a17.46 17.46 0 1 0 34.3-6.56z" fill="rgba(57, 62, 70, 1)"></path>
        <path d="M489.65 494.65 a18.3 18.3 0 1 0 36.6 0 a18.3 18.3 0 1 0 -36.6 0z" fill="rgba(57, 62, 70, 1)"></path>
        <path d="M735.12 247.86L736.23 247.86L736.23 278.12L735.12 278.12z" stroke="rgba(57, 62, 70, 1)"></path>
        <path d="M329.5 299.26a44.26 44.26 0 1 0-74.12-48.4z" fill="rgba(57, 62, 70, 1)"></path>
        <path d="M1214.84 491.96 a25.49 25.49 0 1 0 50.98 0 a25.49 25.49 0 1 0 -50.98 0z" stroke="rgba(57, 62, 70, 1)"></path>
        <path d="M461.01 498.52 a38.63 38.63 0 1 0 77.26 0 a38.63 38.63 0 1 0 -77.26 0z" fill="rgba(57, 62, 70, 1)"></path>
        <path d="M1390.27-25.41a51.51 51.51 0 1 0 40.55 94.7z" stroke="rgba(57, 62, 70, 1)"></path>
        <path d="M901.98 64.99L953.46 64.99L953.46 85.81L901.98 85.81z" stroke="rgba(57, 62, 70, 1)"></path>
        <path d="M1369.86 268.15L1390.82 268.15L1390.82 320.21L1369.86 320.21z" fill="rgba(57, 62, 70, 1)"></path>
        <path d="M1278.89 413.63L1319.46 413.63L1319.46 454.2L1278.89 454.2z" fill="rgba(57, 62, 70, 1)"></path>
        <path d="M1002.65 347.97L1046.45 347.97L1046.45 391.77L1002.65 391.77z" fill="rgba(57, 62, 70, 1)"></path>
        <path d="M950.33 8.81L975.3 8.81L975.3 33.78L950.33 33.78z" stroke="rgba(57, 62, 70, 1)"></path>
        <path d="M294.9 328.51L321.26 328.51L321.26 347.2L294.9 347.2z" stroke="rgba(57, 62, 70, 1)"></path>
        <path d="M590.77 238.87L643.03 238.87L643.03 290.6L590.77 290.6z" stroke="rgba(57, 62, 70, 1)"></path>
        <path d="M843.1 484.12 a7.09 7.09 0 1 0 14.18 0 a7.09 7.09 0 1 0 -14.18 0z" stroke="rgba(57, 62, 70, 1)"></path>
        <path d="M4.49 184.53a23.21 23.21 0 1 0 28.45 36.68z" stroke="rgba(57, 62, 70, 1)"></path>
        <path d="M1275.59 294.56a14.05 14.05 0 1 0 27.72-4.62z" fill="rgba(57, 62, 70, 1)"></path>
        <path d="M718.5 60.99 a1.57 1.57 0 1 0 3.14 0 a1.57 1.57 0 1 0 -3.14 0z" stroke="rgba(57, 62, 70, 1)"></path>
        <path d="M795.42 8.72a9.28 9.28 0 1 0-4.2 18.08z" fill="rgba(57, 62, 70, 1)"></path>
        <path d="M80.99 119.15L83.44 119.15L83.44 129.65L80.99 129.65z" stroke="rgba(57, 62, 70, 1)"></path>
        <path d="M234.52 315.26 a28.96 28.96 0 1 0 57.92 0 a28.96 28.96 0 1 0 -57.92 0z" fill="rgba(57, 62, 70, 1)"></path>
        <path d="M369.54 513.68 a11.23 11.23 0 1 0 22.46 0 a11.23 11.23 0 1 0 -22.46 0z" stroke="rgba(57, 62, 70, 1)"></path>
        <path d="M361.78 65.65a27.79 27.79 0 1 0 54.7-9.82z" stroke="rgba(57, 62, 70, 1)"></path>
        <path d="M36.56 287.17L92.23 287.17L92.23 340.96L36.56 340.96z" fill="rgba(57, 62, 70, 1)"></path>
        <path d="M716 111.87L765.7 111.87L765.7 161.57L716 161.57z" fill="rgba(57, 62, 70, 1)"></path>
        <path d="M1330.21 60.74 a40.32 40.32 0 1 0 80.64 0 a40.32 40.32 0 1 0 -80.64 0z" fill="rgba(57, 62, 70, 1)"></path>
        <path d="M106.02 105.85L145.92 105.85L145.92 145.75L106.02 145.75z" fill="rgba(57, 62, 70, 1)"></path>
        <path d="M1258.54 489.7L1271.15 489.7L1271.15 494.21L1258.54 494.21z" stroke="rgba(57, 62, 70, 1)"></path>
        <path d="M768.93 460.76L805.35 460.76L805.35 497.18L768.93 497.18z" fill="rgba(57, 62, 70, 1)"></path>
        <path d="M788.72 320.76a13.92 13.92 0 1 0 27.84-0.52z" stroke="rgba(57, 62, 70, 1)"></path>
        <path d="M279.21 527.4a14.02 14.02 0 1 0 2.83-27.9z" fill="rgba(57, 62, 70, 1)"></path>
    </g>
    <defs>
        <mask id="SvgjsMask1004">
            <rect width="1440" height="560" fill="#ffffff"></rect>
        </mask>
    </defs>
</svg>